<?xml version="1.0" encoding="UTF-8"?><!DOCTYPE svg PUBLIC "-//W3C//DTD SVG 1.1//EN" "http://www.w3.org/Graphics/SVG/1.1/DTD/svg11.dtd"><svg xmlns="http://www.w3.org/2000/svg"><symbol id="icon-apron" viewBox="0 0 475.8 475.8">
    <path d="M309.8 272.4H166c-4.1 0-7.5 3.4-7.5 7.5v76.8c0 17.4 14.1 31.5 31.5 31.5h95.9c17.4 0 31.5-14.1 31.5-31.5v-76.8c-.1-4.1-3.4-7.5-7.6-7.5zm-24 100.8H190c-9.1 0-16.5-7.4-16.5-16.5V312h95.6c4.1 0 7.5-3.4 7.5-7.5s-3.4-7.5-7.5-7.5h-95.6v-9.6h128.9v9.6h-8c-4.1 0-7.5 3.4-7.5 7.5s3.4 7.5 7.5 7.5h8v44.7c-.1 9.1-7.5 16.5-16.6 16.5zm101.6 75.2l-15.8-222.6c-.3-3.9-3.6-7-7.5-7-15.6 0-29.4-10.9-33.1-26V7.5c0-2-.8-3.9-2.2-5.3-1.4-1.4-3.3-2.2-5.3-2.2h-28.2c-4.1 0-7.5 3.4-7.5 7.5V89H188V7.5c0-4.1-3.4-7.5-7.5-7.5h-28.2c-4.1 0-7.5 3.4-7.5 7.5v185.3c-3.7 15.2-17.5 26.1-33.2 26.1-3.9 0-7.2 3-7.5 7L88.4 448.4c-.3 3.6 2.1 6.9 5.6 7.8l8.1 2.1c44.3 11.6 90 17.4 135.8 17.4s91.5-5.9 135.8-17.4l8.1-2.1c3.5-.9 5.9-4.2 5.6-7.8zm-17.5-4.6c-43.1 11.3-87.5 17-132 17s-88.9-5.7-132-17l-2.1-.6 14.9-209.9c19.9-2.9 36.6-18 41-38.1.1-.5.2-1.1.2-1.6V15H173v81.5c0 4.1 3.4 7.5 7.5 7.5h114.7c4.1 0 7.5-3.4 7.5-7.5V15H316v178.7c0 .5.1 1.1.2 1.6 4.4 20 21.1 35.1 41 38l14.8 210-2.1.5z"/>
</symbol><symbol id="icon-baseball-cap" viewBox="0 0 512.1 512.1">
    <path d="M509 382.3L413.4 303c-1.8-17.2-14.7-114.9-84-173.7-30.9-25.9-69.4-41-109.7-42.9-7.3-17.5-25.1-28.2-44-26.4-18.9 1.8-34.4 15.6-38.3 34.2-2.5.7-4.9 1.6-7.4 2.3-.2.1-.3.1-.5.1-33.7 9.8-63.6 29.7-85.4 57.2-58.2 74.3-42.3 180.8-41.6 185.3.5 2.9 2.4 5.4 5.1 6.5 2.7 1.2 5.9.8 8.3-.9 7.4-4.5 16-6.9 24.7-6.8 9.2.5 18 3.4 25.7 8.5.2.8.6 1.6 1.1 2.3 3.3 4.4 77.5 103.7 142.5 103.7 2.9 0 5.8-.2 8.7-.6 24.9-3.6 52-15.2 80.7-27.5 45.2-19.4 96.5-41.3 149.2-36l53.7 9.1c3.8.7 7.6-1.3 9.2-4.9 1.5-3.6.6-7.7-2.4-10.2zm-113.6-85.5c-7.6-.6-19-1.4-33-2l-1.1-8.4c0-.3-.1-.5-.1-.7-1.9-10.1-17.4-89.3-38.1-139 52.5 48 68.2 123 72.3 150.1zM179.7 76.9c7.6 0 14.9 3.3 19.9 9-6.2.1-12.5.3-18.9.9-8.2.7-16.1 1.8-23.8 3.2 4.8-8.2 13.5-13.2 22.8-13.1zm-61.3 81.5c1.9-17 8.6-33.1 19.3-46.4 14.5-4.2 29.5-7 44.6-8.3 37.7-4.3 75.9 2.8 109.6 20.4 0 .1 0 .1.1.2 2.5 3.7 4.8 7.4 6.9 11.1 24.3 43 44.6 148.2 45.6 153.3 0 .4.1 1 .2 1.6l.5 3.8c-34-1-68 .2-101.9 3.6-39.2 4.7-78.1 11.8-116.5 21.2-3.1-20.7-16.1-115.1-8.4-160.5zM40.6 320.8c-7.7 0-15.3 1.4-22.5 4-2.3-29-3.4-105.8 39.5-160.5 14.4-18.2 32.9-32.8 53.9-42.6-4.8 10.8-8.2 22.2-10.1 33.9-8.4 49.7 5.8 149.5 8.5 167.4-16.2 4.1-28.5 7.5-34.4 9.1-10.3-6.9-22.4-10.8-34.9-11.3zm410.1 50.5c-57.7-5.8-111.1 17-158.2 37.2-27.6 11.8-53.8 23-76.4 26.3-43.3 6.3-102.6-55.5-128.8-88.3 51.7-14.4 104.5-25.1 157.7-31.9 51.6-4.9 103.6-5 155.2-.4l73.4 60.8-22.9-3.7z"/>
    <path d="M243.6 264.6c35.3 0 63.9-24.9 63.9-55.5s-28.7-55.5-63.9-55.5-63.9 24.9-63.9 55.5c-.1 30.6 28.6 55.5 63.9 55.5zm0-93.9c25.8 0 46.9 17.2 46.9 38.4s-21 38.4-46.9 38.4-46.9-17.2-46.9-38.4 21-38.4 46.9-38.4z"/>
</symbol><symbol id="icon-cancel" viewBox="0 0 212.982 212.982">
    <path d="M131.804 106.491l75.936-75.936c6.99-6.99 6.99-18.323 0-25.312-6.99-6.99-18.322-6.99-25.312 0L106.491 81.18 30.554 5.242c-6.99-6.99-18.322-6.99-25.312 0-6.989 6.99-6.989 18.323 0 25.312l75.937 75.936-75.937 75.937c-6.989 6.99-6.989 18.323 0 25.312 6.99 6.99 18.322 6.99 25.312 0l75.937-75.937 75.937 75.937c6.989 6.99 18.322 6.99 25.312 0 6.99-6.99 6.99-18.322 0-25.312l-75.936-75.936z" fill-rule="evenodd" clip-rule="evenodd"/>
</symbol><symbol id="icon-facebook" viewBox="0 0 10 19">
    <title>
        facebook
    </title>
    <path d="M9.766.157v2.946H8.014c-.64 0-1.071.134-1.295.402-.223.268-.335.67-.335 1.205v2.11h3.27l-.435 3.303H6.384v8.471H2.97v-8.47H.123V6.82H2.97V4.387c0-1.384.387-2.457 1.161-3.22C4.904.404 5.934.023 7.222.023c1.093 0 1.941.045 2.544.134z" fill-rule="evenodd"/>
</symbol><symbol id="icon-fashion" viewBox="0 0 496 496">
    <path d="M493.7 178.3l-80-80c-1.2-1.1-2.6-1.9-4.2-2.2l-88-16c-4.3-.8-8.5 2.1-9.3 6.4-.2.5-.2 1-.2 1.5 0 2.5-.3 5.1-.7 7.6L256 81.8v-2.6c21.6-4.4 35.6-25.5 31.2-47.2S261.6-3.6 240 .8C221.4 4.6 208 21 208 40h16c0-13.3 10.7-24 24-24s24 10.7 24 24-10.7 24-24 24c-4.4 0-8 3.6-8 8v9.8l-55.3 13.8c-.4-2.5-.7-5-.7-7.6 0-2.4-1.1-4.6-2.9-6.1-1.8-1.5-4.2-2.2-6.6-1.7l-88 16c-1.6.3-3.1 1.1-4.2 2.2l-80 80c-3.1 3.1-3.1 8.2 0 11.3l64 64c3.1 3.1 8.2 3.1 11.3 0L96 235.3V288H40c-22-.1-39.9 17.7-40 39.8 0 12.7 6 24.7 16.2 32.2-17.7 12.9-21.5 37.7-8.6 55.4 2.4 3.3 5.3 6.2 8.6 8.6-17.7 13.1-21.5 38-8.5 55.8C15.3 490 27.3 496 40 496h288c2.1 0 4.2-.8 5.7-2.3l64-64c1.5-1.5 2.3-3.5 2.3-5.7h.1V235.3l18.3 18.3c3.1 3.1 8.2 3.1 11.3 0l64-64c3.1-3.1 3.1-8.1 0-11.3zM248 96.2l58.2 14.5a65.24 65.24 0 0 1-58.2 32.2c-23.8.7-46.1-11.7-58.2-32.2L248 96.2zM16 328c0-13.3 10.7-24 24-24h176c13.3 0 24 10.7 24 24s-10.7 24-24 24H40c-13.2 0-24-10.7-24-24zm0 64c0-13.3 10.7-24 24-24h176c13.3 0 24 10.7 24 24s-10.7 24-24 24H40c-13.2 0-24-10.7-24-24zm200 88H40c-13.3 0-24-10.7-24-24s10.7-24 24-24h176c13.3 0 24 10.7 24 24s-10.7 24-24 24zm120-11.3V432h36.7L336 468.7zm88-232l-50.3-50.3-11.3 11.3 21.7 21.7V416h-56c-4.4 0-8 3.6-8 8v56h-72.2c13.3-17.3 10.1-42-7.1-55.3-.3-.2-.6-.4-.9-.7 17.7-12.9 21.5-37.7 8.6-55.4-2.4-3.3-5.3-6.2-8.6-8.6 17.7-13.1 21.5-38 8.5-55.8C240.7 294 228.7 288 216 288H112v-68.7l21.7-21.7-11.3-11.3L72 236.7 19.3 184l72.6-72.6 76.8-14c5.2 34.7 38.8 61.5 79.3 61.5s74.1-26.8 79.3-61.5l76.8 14 72.6 72.6-52.7 52.7z"/>
    <path d="M32 320h192v16H32z"/>
    <path d="M32 384h184v16H32z"/>
    <path d="M32 448h184v16H32z"/>
</symbol><symbol id="icon-handbag" viewBox="0 0 512 512">
    <path d="M177.3 245.2c-4.1 0-7.5 3.4-7.5 7.5V267c0 4.1 3.4 7.5 7.5 7.5s7.5-3.4 7.5-7.5v-14.2c0-4.2-3.3-7.6-7.5-7.6z"/>
    <path d="M334.7 245.2c-4.1 0-7.5 3.4-7.5 7.5V267c0 4.1 3.4 7.5 7.5 7.5s7.5-3.4 7.5-7.5v-14.2c0-4.2-3.4-7.6-7.5-7.6z"/>
    <path d="M280.4 260.3c-3.1-2.7-7.9-2.4-10.6.7-3.3 3.8-8.4 6-13.8 6s-10.4-2.2-13.8-6c-2.7-3.1-7.5-3.4-10.6-.7-3.1 2.7-3.4 7.5-.7 10.6 6.2 7.1 15.3 11.2 25.1 11.2s18.9-4.1 25.1-11.2c2.7-3.1 2.4-7.8-.7-10.6z"/>
    <path d="M266.1 383.3c0 5.6-4.5 10.1-10.1 10.1s-10.1-4.5-10.1-10.1 4.5-10.1 10.1-10.1 10.1 4.6 10.1 10.1z"/>
    <path d="M436.5 202.8c-7.9-8.8-17.8-15.4-28.7-19.5-3.1-19.4-8.9-46.8-19.9-74.6C360.4 39.6 314.8 3 256 3c-34.3 0-64.2 12.5-88.9 37.1-2.9 2.9-2.9 7.7 0 10.6 2.9 2.9 7.7 2.9 10.6 0C199.5 29 225.8 18 256 18c52.1 0 92.9 33.3 117.9 96.2 9.4 23.6 14.8 47 18 65-.5-.1-1.1-.1-1.6-.2-2.8-.3-5.6-.5-8.4-.5h-10.7c-3-15.7-8-36.7-16.4-57.6-22-54.9-55.2-82.8-98.8-82.8s-76.8 27.9-98.8 82.8c-8.3 20.8-13.4 41.9-16.4 57.6h-10.7c-3.4 0-6.7.2-10 .7 3.2-18 8.7-41.4 18-65 6.3-15.8 13.6-29.9 21.8-42 2.3-3.4 1.5-8.1-2-10.4-3.4-2.3-8.1-1.5-10.4 2-8.9 13-16.7 28.1-23.4 44.9-11 27.7-16.9 55.1-19.9 74.6-10.9 4.1-20.8 10.7-28.7 19.5C47.3 234 0 298 0 375.9c0 55.8 21.2 91.1 66.8 111 37.9 16.6 92.7 23.3 189.2 23.3s151.3-6.8 189.2-23.3c45.6-19.9 66.8-55.2 66.8-111 0-77.9-47.3-141.9-75.5-173.1zm-265.4-76.2c19.5-48.7 48-73.4 84.9-73.4s65.4 24.7 84.9 73.4c7.4 18.6 12.1 37.4 15 52H156.1c2.9-14.7 7.6-33.5 15-52zM436.9 240c.5-4 .9-8.1 1.2-12.2 26.2 32.7 58.9 85.9 58.9 148.1 0 49.8-17.8 79.8-57.8 97.3-44.4 19.4-114.3 22.1-183.2 22.1s-138.8-2.7-183.2-22.1c-40-17.5-57.8-47.5-57.8-97.3 0-62.2 32.7-115.4 58.9-148.1v.4c1.2 16 4.1 32 8.9 47.3 14.9 48.1 49.5 86.5 97.3 103.5 13.2 4.7 26.9 7.8 40.7 9.6.2 0 .4.1.6.1v17.1c0 11 9.2 20.1 20.1 20.1h29c10.9 0 20.1-9.3 20.1-20.1v-17.1h.2c23.7-3.2 47-10.1 67.8-21.9 7.6-4.3 14.7-9.3 21.4-14.8 3.3-2.8 3.5-8.1.4-11.1-2.7-2.6-7.1-2.8-10-.4-9.1 7.6-19.4 14-30.2 19-15.7 7.3-32.5 11.7-49.6 14.1V361c0-10.9-9.2-20.1-20.1-20.1h-29c-11 0-20.1 9.2-20.1 20.1v12.6c-5.8-.8-11.5-1.8-17.2-3.1-21.8-5-42.7-14.1-60.3-28.1C109.6 315 92.7 271.8 89.1 229c-.5-5.9-.8-11.8-.6-17.6v-.2-.2c6.8-6.9 15.3-12 24.5-14.8h.2c11-3.3 22.6-2.5 34-2.5H365c11.4 0 22.9-.8 34 2.5.1 0 .1 0 .2.1 9.2 2.8 17.6 7.9 24.5 14.8.4.4 0 3.3 0 3.9-.3 34.7-9.4 70.4-29.2 99.3-1.6 2.3-3.6 4.4-5 6.8-2 3.2-1.2 7.6 1.8 9.9 3.2 2.5 8 1.9 10.5-1.3 9-11.6 16.2-24.5 21.9-38 6.6-16.7 10.9-34.1 13.2-51.7zM236.3 405.8v-44.9c0-2.7 2.3-5.1 5.1-5.1h29c2.7 0 5.1 2.3 5.1 5.1v44.9c0 2.8-2.3 5.1-5.1 5.1h-29c-2.8 0-5.1-2.3-5.1-5.1z"/>
</symbol><symbol id="icon-hoodie" viewBox="0 0 512 512">
    <path d="M454.9 262.8c-4.5 0-8.1 3.6-8.1 8.1v102.9L404 385.4V183.5c0-4.5-3.6-8.1-8.1-8.1s-8.1 3.6-8.1 8.1v277.4H191.3c-4.5 0-8.1 3.6-8.1 8.1s3.6 8.1 8.1 8.1h196.6v18.7H124.1v-18.7h40.8c4.5 0 8.1-3.6 8.1-8.1s-3.6-8.1-8.1-8.1h-40.8V183.5c0-4.5-3.6-8.1-8.1-8.1s-8.1 3.6-8.1 8.1v201.9l-42.8-11.6V134.2C65.2 110 94 90.8 120 79c.1-.1.3-.1.4-.2 12.3-5.5 23.2-9 28.2-10.6l49.5 25.6v128.7c0 4.5 3.6 8.1 8.1 8.1s8.1-3.6 8.1-8.1V102.2l38 19.6c2.3 1.2 5.1 1.2 7.4 0l40.3-20.9v121.6c0 4.5 3.6 8.1 8.1 8.1s8.1-3.6 8.1-8.1V92.6l47.1-24.4c5.2 1.6 16.6 5.3 29.3 11.1.1.1.3.1.4.2 25.7 11.9 53.8 30.8 53.8 54.8v109.1c0 4.5 3.6 8.1 8.1 8.1s8.1-3.6 8.1-8.1V134.2c0-32.6-32.8-55-60.5-68.2C382.9 10.8 345.4.6 343.7.2c-.2 0-.3-.1-.5-.1s-.3-.1-.5-.1H170.9c-.3 0-.5 0-.8.1-.2 0-.3.1-.5.1s-.3 0-.5.1c-1.6.4-38.9 10.6-58.6 65.3-27.8 13-61.5 35.6-61.5 68.6v291.5c0 3.6 2.4 6.8 6 7.8l53 14.4v56c0 4.5 3.6 8.1 8.1 8.1h280c4.5 0 8.1-3.6 8.1-8.1v-56l53-14.4c3.5-1 6-4.2 6-7.8V270.8c-.2-4.4-3.8-8-8.3-8zM256.5 84.5l-30.4-31.4h60.7l-30.3 31.4zm87.4-67c7.7 3.5 24.5 13.7 37.4 39.7-8.7-3.2-15-5-16.5-5.4-.1 0-.2 0-.2-.1l-1.5-.3c-1.5-.1-3 .2-4.3.9l-43.1 22.3c-1.1-3.1-4.1-5.4-7.6-5.4-4.5 0-8.1 3.6-8.1 8.1v5.4l-38.9 20.1 1.1-1.2 49.4-51.1L330 31.8l13.9-14.3zm-21.2-1.3l-10.3 10.7-9.9 10.1h-92l-20.2-20.8h132.4zm-153.6 1.3l76.2 78.6-1.8 1.9-.7.7L214.3 84v-6.6c0-4.5-3.6-8.1-8.1-8.1-3.9 0-7.1 2.8-7.9 6.4l-45.1-23.3c-.3-.1-.5-.3-.8-.4-.1 0-.2-.1-.3-.1-.2-.1-.4-.1-.6-.2-.1 0-.2 0-.3-.1-.2 0-.4-.1-.7-.1h-.2c-.3 0-.6 0-.9-.1h-.1-.1c-.3 0-.5 0-.8.1h-.3c-.3 0-.6.1-.9.2-.9.3-6.9 1.9-15.5 5 13-25.7 29.7-35.8 37.4-39.2zm-61.2 413.6l-42.8-11.6v-29l42.8 11.6v29zm338.9-11.6L404 431.1v-29l42.8-11.6v29z"/>
    <path d="M314.5 300c0-4.5-3.6-8.1-8.1-8.1h-99.8c-4.5 0-8.1 3.6-8.1 8.1 0 25.1-13.8 48-36 59.7-2.6 1.4-4.3 4.2-4.3 7.1V430c0 4.5 3.6 8.1 8.1 8.1h180.5c4.5 0 8.1-3.6 8.1-8.1v-63.2c0-3-1.7-5.7-4.3-7.1-22.3-11.7-36.1-34.6-36.1-59.7zm24.1 122H174.3v-50.4c22.7-13.7 37.4-37.3 39.9-63.5h84.4c2.5 26.2 17.3 49.8 39.9 63.5l.1 50.4z"/>
</symbol><symbol id="icon-jacket" viewBox="0 0 511 511">
    <path d="M263.8 179.8c0 5.2-4.2 9.3-9.3 9.3s-9.3-4.2-9.3-9.3c0-5.2 4.2-9.3 9.3-9.3s9.3 4.2 9.3 9.3z"/>
    <path d="M263.8 243.8c0 5.2-4.2 9.3-9.3 9.3s-9.3-4.2-9.3-9.3c0-5.2 4.2-9.3 9.3-9.3s9.3 4.1 9.3 9.3z"/>
    <path d="M263.8 307.8c0 5.2-4.2 9.3-9.3 9.3s-9.3-4.2-9.3-9.3c0-5.2 4.2-9.3 9.3-9.3s9.3 4.1 9.3 9.3z"/>
    <path d="M263.8 371.8c0 5.2-4.2 9.3-9.3 9.3s-9.3-4.2-9.3-9.3c0-5.2 4.2-9.3 9.3-9.3s9.3 4.1 9.3 9.3z"/>
    <path d="M6.5 480c4.6 4.7 10.9 7.6 17.8 7.6h32.5c13.2 0 24.3-10.3 25.2-23.5.7-9.5 1.8-24.5 3.6-41.9 4.1-39.4 11.3-88.6 23.3-125.5l.9 124.8.2 28.3c.1 20.9 17.3 37.9 38.1 37.9h212.5c20.9 0 38-17 38.1-37.9l.2-28.3.9-124.8c12.1 36.9 19.2 86.1 23.3 125.5 1.8 17.4 3 32.4 3.6 41.9.9 13.2 12 23.5 25.2 23.5h32.5c13.9 0 25.4-11.6 25.3-25.5 0-5.3-.5-32.8-.7-41-2.5-88.2-10.7-162.4-24.5-220.7-1-4-5-6.5-9-5.6-4 1-6.5 5-5.6 9 13.1 55.6 21.2 126.2 23.9 210h-56.6c-5.8-52.5-16.9-119.4-37.6-155.6-1-1.7-.9-5.2-1.2-7.2-3-19.2-3.3-38.8-.5-58 4.3-29.4 16.8-58.4 36.8-80.6 5.9 8.2 16.9 26.9 27.8 63.4 1.2 4 5.4 6.2 9.3 5 4-1.2 6.2-5.4 5-9.3-7.3-24.3-15.5-44.2-24.4-59.3-3.3-5.6-7.1-12.1-12.2-16.4-25.5-26-71.5-32.6-85.7-34.1-4.7-8.2-11.5-15.3-20.2-21-12.1-7.9-24.1-10.6-26.9-11.1-3.3-1-18.1-4.9-53.1-4.9-16.1 0-29.9.8-41 2.4-6.3.9-9.9 1.7-12.1 2.5-2.6.5-14.8 3.2-27.1 11.2-8.7 5.7-15.5 12.7-20.2 21-14.3 1.5-60.4 8.1-85.8 34.1C64 99.7 21 143.8 4.8 326.6c-.4 4.1 2.7 7.8 6.8 8.1 4.1.4 7.8-2.7 8.1-6.8C28 234 43.5 178.9 55 149.2c7.6-19.4 14.4-30.8 18.7-36.8l.1.1c.2.2.3.4.5.5 14.3 16.1 48.4 63.8 35.1 141.5 0 .2-.5 2.6-.6 3.6C88.1 294.3 77 361.2 71.2 413.7H14.9c.6-19.3 1.5-38.2 2.7-56.1.3-4.1-2.8-7.7-7-8-4.1-.3-7.7 2.8-8 7-1.4 20.5-2.4 42.1-3 64.3-.2 8.1-.7 35.6-.7 41 0 7 2.9 13.4 7.6 18.1zM495 462.2c0 5.7-4.6 10.4-10.3 10.4h-32.5c-5.4 0-9.9-4.2-10.3-9.6-.2-2.7-.4-5.9-.7-9.5h53.7c.1 3 .1 5.8.1 8.7zm-.5-33.4c.1 3.2.1 6.5.2 9.7H440c-.3-3.1-.6-6.4-.9-9.7h55.4zm-275.4 43.8h-70.9c-12.7 0-23.1-10.3-23.2-23l-.2-20.8H219v43.8zm55.8 0h-40.8v-43.8h40.8v43.8zm0-58.7h-40.8V138.8c2.2 0 4.3-.1 6.5-.1 6.9-.2 11.9-.6 13.8-.8h.1c.8.1 10.1.7 12.8.7 2.5.1 5 .1 7.5.1v275.2zm109 35.7c-.1 12.7-10.5 23-23.2 23h-70.9v-43.8H384l-.1 20.8zM362.6 95.8c.4-5.9-.2-12-1.5-17.8v-.2c15.8 2.3 44.6 8.5 63.6 23.9-6.1 6.7-16 18.9-24.8 36.7-17.8 35.9-21.9 77.3-15.7 116.6.4 2.2.7 4.5 1.2 6.7L384.3 414H290V138.4c7.8-.4 15-1.2 21.6-2.3 31.8-5.5 49.6-19.3 51-40.3zM313.1 94c7.3-13.2 9.1-28.4 5.6-43.1-.2-.6-.3-1.3-.5-1.9 11 5 25.1 15.1 28.7 34.6.9 5.2 1.6 11.1-.1 16.2-1.8 5.5-7 12.6-22.3 17.8-10.2 3.4-21 4.9-31.7 5.7-2.8.2-5.6.3-8.4.4h-.2c2.1-1.4 4.2-2.8 6.2-4.4 9.1-6.9 17.2-15.3 22.7-25.3zM203.6 64.3c.1-4.5.9-8.9 2.1-13.2.3-.9 1.8-7.4 2.8-7.6 5.6-1.2 19.6-3.5 46-3.5s40.4 2.3 46 3.5c3.2 7.3 5.2 15.2 5 23.2-.5 27.8-27.6 46.5-51 55.7-4.2-1.7-13.3-5.6-22.6-12-15.8-10.6-28.8-26.3-28.3-46.1zm-42.3 26.1c.9-18.8 12.5-33.8 29.4-41.5-.2.8-.4 1.6-.6 2.5v.1c-4.5 19.3 1 38.7 13.6 53.7 6.3 7.5 13.9 13.6 21.1 18.4h-1.1c-20.1-.7-63.7-3.8-62.4-33.2zM112.7 146c-2.1-4.8-25.9-46.3-28.3-44.3 18.9-15.3 47.8-21.5 63.6-23.9v.2c-3.4 14.9-1.3 31.7 10.8 42.3 9.7 8.5 22.2 12.5 34.6 15 7.7 1.6 16.3 2.6 25.8 3.1v275.4h-94.3l-1.1-152.3c.1-.8.3-1.5.4-2.3 6.7-37.8 4-77.7-11.5-113.2zM14.5 428.8h55.4c-.3 3.4-.6 6.6-.9 9.7H14.3c.1-3.2.1-6.4.2-9.7zm-.4 24.8h53.7c-.3 3.6-.5 6.7-.7 9.5-.4 5.4-4.9 9.6-10.3 9.6H24.3c-5.7 0-10.3-4.7-10.3-10.4 0-3 0-5.9.1-8.7z"/>
</symbol><symbol id="icon-polo-shirt" viewBox="0 0 512 512">
    <path d="M500.6 161.2c-1.5-3.9.8-.5-45.5-53.5-2.7-3.1-7.5-3.4-10.6-.7-3.1 2.7-3.4 7.5-.7 10.6l20.9 24-64.6 50.4c-4.9-.4-9.5 2.8-10.8 7.8l-.2.9h.1c-3.2 12-6.4 38-7.8 52.2-11.1 118.9 16.2 205 15.7 211.1-.3 3.6-2.4 7-5.8 8.8-7.8 3.5-18.6 7.2-26.7 9.6-4 1.2-6.3 5.4-5.1 9.3 1.2 4 5.3 6.3 9.3 5.1 9.1-2.7 23.7-7.8 29-10.5 11-5.4 16.4-17.9 13.5-29.7-21-84.2-22.1-175.1-9.4-243.8 10.5 12.2 10.2 11.9 11.4 13 6.2 5.6 15.7 6.5 23.1 1.1.1-.1 60-47.1 61.5-48.9 3.7-4.5 5.1-10.8 2.7-16.8zm-14.4 7.2c-62.2 49-59 46.9-60.5 46.9-2.7.2-2.7-1.9-13.5-13.8l62.4-48.7c12.7 14.5 12 13.6 12.1 14.3 0 .4-.1 1-.5 1.3z"/>
    <circle cx="256.1" cy="140.7" r="9.6"/>
    <circle cx="256.1" cy="175.5" r="9.6"/>
    <path d="M338.2 496.6c-.7-4.1-4.6-6.8-8.7-6.1-42.1 7.5-71.9 6-91.4 5.9-43.2-2.3-67-7.3-90.8-14.2-25.8-7.7-31.5-10.5-32.2-18.3-.5-6.1 21.3-76.7 18.2-168.3-.1-4.1-3.5-7.4-7.6-7.3-4.2.1-7.5 3.5-7.4 7.6v.2c1.3 54.6-4.7 109-17.4 160.4-2.8 11.3 1.7 24.9 16 30.8 38.3 15.6 79.3 22.5 120.5 24.2 20.8 1.4 59.9.1 94.8-6.1 4.1-.8 6.8-4.7 6-8.8z"/>
    <path d="M432 81.3c-5.6-5.5-14-19.8-34.5-28.2l-43.4-17.9C336 10.9 334.3 7.1 326.1 3c-12.3-4.7 3.8-1.9-105.9-2.9-24.2-.2-28.5-.7-36.8 4.6-8.2 5.3-9 9.4-23.7 28.3l-1.6 2.1L114.7 53c-10 4.1-19.1 10.6-26.3 18.8-79.5 91-79.7 87.8-77.7 98.4.7 3.7 2.6 7.1 6 9.9 63.4 50 60.2 48.1 64.9 49.4 14.7 4.3 20.7-8.7 28.6-17 2.8 15.4 4.9 32.5 6.2 48.6.3 3.9 3.6 6.9 7.5 6.9 4.4 0 7.9-3.8 7.5-8.1-1.4-17.2-4.7-44.9-8.3-59.4-.1-.3-.8-6.2-7-8.2-1.3-.4-2.7-.6-4-.5l-64.7-50.4 52.3-59.8c13.6-15.5 27.8-16.5 60.5-31.2l46.5 64.8c2.7 3.8 6.6 6.3 11 6.9 10.1 1.5 12.8-4.6 38.4-22.5 26.4 18.6 28.2 23.5 36.3 23.5 5 0 9.6-2.7 12.2-6.4L352 50.6 391.8 67c16.6 6.8 23.2 18.6 28.9 24.2 2.7 3.1 7.5 3.4 10.6.7 3.2-2.7 3.5-7.5.7-10.6zM100 201.6c-11.7 13.6-12 15.3-15.4 13C24.2 167 24.4 168 25.8 166.3l11.7-13.4 62.5 48.7zM340.1 41.4c0-.1-.2-.2-.2-.3 0 .1 0 .2.2.3zm-31.8-26.2L289 38.7h-65.8l-19.5-23.6c12.9-.1 38.6.6 104.6.1zM220 107.4c-1-.2 1.4 2.3-47.8-66 6.3-8.4 15.1-20.4 16-21.4 52.1 63 56.9 68.9 57.1 69.1 0 0-.3-.3 0 0-25.8 19-24.7 18.4-25.3 18.3zm15.6-53.7h41l-20.5 24.9-20.5-24.9zm56.8 54.3l-25.5-19c.1-.1 57-68.9 57.1-69.1 13.6 18.1 15.9 21.2 16.1 21.4-49.8 69.8-47.5 66.6-47.7 66.7z"/>
</symbol><symbol id="icon-scarf" viewBox="0 0 511 511">
    <path d="M200 56.6c4.1 0 7.5-3.4 7.5-7.5V38.8c0-4.1-3.3-7.5-7.5-7.5-4.1 0-7.5 3.4-7.5 7.5v10.3c.1 4.2 3.4 7.5 7.5 7.5z"/>
    <path d="M313.6 56.6c4.1 0 7.5-3.4 7.5-7.5V38.8c0-4.1-3.4-7.5-7.5-7.5s-7.5 3.4-7.5 7.5v10.3c.1 4.2 3.4 7.5 7.5 7.5z"/>
    <path d="M256.8 62.1c7.6 0 14.8-3.2 19.7-8.8 2.7-3.1 2.4-7.8-.7-10.6-3.1-2.7-7.8-2.4-10.6.7-2 2.3-5.1 3.6-8.4 3.6-3.3 0-6.4-1.3-8.4-3.6-2.7-3.1-7.5-3.4-10.6-.7-3.1 2.7-3.4 7.5-.7 10.6 5 5.6 12.1 8.8 19.7 8.8z"/>
    <path d="M435.5 192.3c-2.6 3.2-2.2 7.9 1 10.5 3.2 2.6 7.9 2.2 10.5-1l23.5-28.3c29.3-35.3 24.5-87.9-10.8-117.3L394 1.7C392.7.6 390.9 0 389.2 0H124.5c-1.8.1-3.4.6-4.8 1.7L54 56.3c-17.1 14.2-27.6 34.2-29.7 56.4s4.7 43.8 18.9 60.9l62.6 75.3c2.6 3.2 7.4 3.6 10.5 1 3.2-2.6 3.6-7.4 1-10.5L54.7 164c-11.7-14-17.2-31.8-15.5-49.9 1.7-18.2 10.3-34.6 24.4-46.3L123.5 18l123.6 148.7L152 281.1l-15.6-18.7c-2.6-3.2-7.4-3.6-10.5-1-3.2 2.6-3.6 7.4-1 10.5l17.3 20.9-38 45.7c-2.6 3.2-2.2 7.9 1 10.5l6.2 5.1-47 56.6c-7.4 8.8-6.1 22 2.7 29.4 8.8 7.3 22.1 6 29.4-2.7l47-56.6 7.7 6.4-47 56.6c-7.4 8.8-6.1 22 2.7 29.4 8.7 7.3 22.1 6 29.4-2.7l47-56.6 7.7 6.4s-47 56.5-47 56.6c-7.3 8.8-6 22.1 2.7 29.4 8.7 7.3 22.1 6 29.4-2.7l47-56.6 6.2 5.1c3.1 2.6 7.9 2.2 10.5-1l17-20.5 17 20.5c2.5 3.1 7.4 3.6 10.5 1l6.2-5.1s47 56.5 47 56.6c7.2 8.6 20.6 10 29.4 2.7s10-20.6 2.7-29.4l-47-56.6 7.7-6.4s47 56.5 47 56.6c7.3 8.7 20.7 10 29.4 2.7 8.8-7.4 10.1-20.5 2.7-29.4l-47-56.6 7.7-6.4s47 56.5 47 56.6c7.3 8.7 20.6 10 29.4 2.7 8.7-7.3 10-20.6 2.7-29.4l-47-56.6s6.1-5.1 6.2-5.1c3.1-2.6 3.6-7.4 1-10.5l-38-45.7 56.4-67.8c2.6-3.2 2.2-7.9-1-10.5s-7.9-2.2-10.5 1L233.1 435.8l-112.5-93.5L390.2 18l59.9 49.8c29 24.1 32.9 67.2 8.9 96.2l-23.5 28.3zm-77.3 294.1c2 2.4 1.8 6.2-.8 8.3-2.5 2.1-6.2 1.7-8.3-.8l-47-56.6 9.1-7.5c-.1.1 46.9 56.6 47 56.6zm39.7-33c2.1 2.5 1.7 6.2-.8 8.3-2.5 2.1-6.2 1.7-8.3-.8l-47-56.6 9.1-7.5 47 56.6zm39.8-33.1c2.1 2.5 1.7 6.2-.8 8.3-2.5 2.1-6.2 1.7-8.3-.8l-47-56.6 9.1-7.5 47 56.6zm-76-115.7l31.4 37.8-112.5 93.5-14-16.9 95.1-114.4zM211.6 437.4s-46.9 56.5-47 56.6c-2.1 2.5-5.8 2.8-8.3.8-2.5-2.1-2.8-5.8-.8-8.3l47-56.6 9.1 7.5zm-39.8-33.1s-46.9 56.5-47 56.6c-2.1 2.5-5.8 2.8-8.3.8-2.5-2.1-2.8-5.8-.8-8.3l47-56.6 9.1 7.5zM123 363.7l9.1 7.5s-46.9 56.4-47 56.6c-2.1 2.5-5.8 2.8-8.3.8-2.5-2.1-2.8-5.8-.8-8.3l47-56.6zM256.8 155l-21.4-25.7h42.7L256.8 155zm33.8-40.6H223L140.4 15h232.8l-82.6 99.4z"/>
</symbol><symbol id="icon-shirt" viewBox="0 0 512 512">
    <path d="M290.3 256.5c-4.5 0-8.1 3.6-8.1 8s3.6 8 8.1 8 8-3.6 8-8-3.6-8-8-8z"/>
    <path d="M290.4 376.3c-4.5 0-8.1 3.6-8.1 8s3.6 8 8.1 8c4.4 0 8-3.6 8-8s-3.6-8-8-8z"/>
    <path d="M290.3 196.7c-4.5 0-8.1 3.6-8.1 8s3.6 8 8.1 8 8-3.6 8-8-3.6-8-8-8z"/>
    <path d="M290.3 316.4c-4.5 0-8.1 3.6-8.1 8s3.6 8 8.1 8 8-3.6 8-8-3.6-8-8-8z"/>
    <path d="M477.6 386.5l-7.4-275.2c-.7-24.3-16.5-46.1-39.3-54.3l-84.1-30-15.7-23.4c-1.3-1.9-3.3-3.2-5.6-3.5-.4 0-.7-.1-1.1-.1H187.6c-.4 0-.7 0-1.1.1-2.3.3-4.3 1.6-5.6 3.5L165.3 27 81.2 57c-22.9 8.2-38.7 30-39.3 54.3l-7.4 275.2c-.2 6.9 3.9 13.2 10.3 15.8l-1.5 26.6c-.4 7.2 3.9 13.8 10.6 16.4l48.9 18.6c.3 7.2 5.3 13.4 12.3 15.3L237 511.7c.7.2 1.4.3 2.1.3 1.6 0 3.1-.5 4.5-1.4 1.9-1.3 3.2-3.3 3.5-5.6l9.2-68.7 9.2 68.7c.3 2.3 1.6 4.3 3.5 5.6 1.9 1.3 4.3 1.7 6.5 1.1l121.9-32.5c7-1.9 12-8.1 12.3-15.3l48.9-18.6c6.8-2.6 11.1-9.2 10.6-16.4l-1.5-26.6c6-2.6 10.1-8.9 9.9-15.8zM332 33.8l-35 55.9c0 .1-.1.2-.4.2-.2 0-.4-.1-.4-.1l-27.8-22.2 54.3-47.5 9.3 13.7zM189.2 20.1l54.3 47.5-27.8 22.2c-.1 0-.2.2-.4.1-.2 0-.3-.2-.4-.2L180 33.8l9.2-13.7zm-86.6 426.7l-43.1-16.4c-.2-.1-.4-.3-.3-.5l1.2-21.6 42.2 15.8v22.7zM248 375.2l-15.8 118.7L119 463.7c-.2-.1-.4-.3-.4-.5V153.4c0-4.4-3.6-8-8-8s-8 3.6-8 8v253.5l-51.9-19.5c-.2-.1-.4-.3-.3-.5l7.4-275.2c.5-17.7 12-33.6 28.7-39.6l80.6-28.8 34.2 54.8c2.5 4 6.6 6.8 11.3 7.6.9.2 1.9.2 2.8.2 3.7 0 7.4-1.3 10.4-3.6L248 84.6v290.6zm8-318L208.9 16H303l-47 41.2zm196.5 373.1l-43.1 16.4V424l42.2-15.8 1.2 21.6c.1.2-.1.4-.3.5zm8.8-42.8l-51.8 19.4.2-253.5c0-4.4-3.6-8-8-8s-8 3.6-8 8l-.3 309.8c0 .2-.2.5-.4.5l-113.1 30.2L264 375.2V84.6l22.2 17.8c3 2.4 6.6 3.6 10.4 3.6.9 0 1.9-.1 2.8-.2 4.7-.8 8.8-3.5 11.3-7.6l34.2-54.8 80.6 28.8c16.7 6 28.2 21.9 28.7 39.6l7.4 275.2c0 .2-.1.4-.3.5z"/>
    <path d="M213.2 145.4h-68.4c-4.4 0-8 3.6-8 8v59.9c0 13.9 11.3 25.1 25.1 25.1h34.2c13.9 0 25.1-11.3 25.1-25.1v-59.9c.1-4.4-3.5-8-8-8zm-8 67.8c0 5-4.1 9.1-9.1 9.1h-34.2c-5 0-9.1-4.1-9.1-9.1v-19.3c2.8 1.1 5.9 1.7 9.1 1.7h34.2c3.2 0 6.3-.6 9.1-1.7v19.3zm0-42.7c0 5-4.1 9.1-9.1 9.1h-34.2c-5 0-9.1-4.1-9.1-9.1v-9.1h52.4v9.1z"/>
    <circle cx="290.2" cy="144.8" r="8"/>
</symbol><symbol id="icon-t-shirt" viewBox="0 0 496 496">
    <path d="M493.7 178.3l-80-80c-1.2-1.1-2.6-1.9-4.2-2.2l-88-16c-4.3-.8-8.5 2.1-9.3 6.4-.2.5-.2 1-.2 1.5 0 2.5-.3 5.1-.7 7.6L256 81.8v-2.6c21.6-4.4 35.6-25.5 31.2-47.2S261.6-3.6 240 .8C221.4 4.6 208 21 208 40h16c0-13.3 10.7-24 24-24s24 10.7 24 24-10.7 24-24 24c-4.4 0-8 3.6-8 8v9.8l-55.3 13.8c-.4-2.5-.7-5-.7-7.6 0-2.4-1.1-4.6-2.9-6.1-1.8-1.5-4.2-2.2-6.6-1.7l-88 16c-1.6.3-3.1 1.1-4.2 2.2l-80 80c-3.1 3.1-3.1 8.2 0 11.3l64 64c3.1 3.1 8.2 3.1 11.3 0L96 235.3V288H40c-22-.1-39.9 17.7-40 39.8 0 12.7 6 24.7 16.2 32.2-17.7 12.9-21.5 37.7-8.6 55.4 2.4 3.3 5.3 6.2 8.6 8.6-17.7 13.1-21.5 38-8.5 55.8C15.3 490 27.3 496 40 496h288c2.1 0 4.2-.8 5.7-2.3l64-64c1.5-1.5 2.3-3.5 2.3-5.7h.1V235.3l18.3 18.3c3.1 3.1 8.2 3.1 11.3 0l64-64c3.1-3.1 3.1-8.1 0-11.3zM248 96.2l58.2 14.5a65.24 65.24 0 0 1-58.2 32.2c-23.8.7-46.1-11.7-58.2-32.2L248 96.2zM16 328c0-13.3 10.7-24 24-24h176c13.3 0 24 10.7 24 24s-10.7 24-24 24H40c-13.2 0-24-10.7-24-24zm0 64c0-13.3 10.7-24 24-24h176c13.3 0 24 10.7 24 24s-10.7 24-24 24H40c-13.2 0-24-10.7-24-24zm200 88H40c-13.3 0-24-10.7-24-24s10.7-24 24-24h176c13.3 0 24 10.7 24 24s-10.7 24-24 24zm120-11.3V432h36.7L336 468.7zm88-232l-50.3-50.3-11.3 11.3 21.7 21.7V416h-56c-4.4 0-8 3.6-8 8v56h-72.2c13.3-17.3 10.1-42-7.1-55.3-.3-.2-.6-.4-.9-.7 17.7-12.9 21.5-37.7 8.6-55.4-2.4-3.3-5.3-6.2-8.6-8.6 17.7-13.1 21.5-38 8.5-55.8C240.7 294 228.7 288 216 288H112v-68.7l21.7-21.7-11.3-11.3L72 236.7 19.3 184l72.6-72.6 76.8-14c5.2 34.7 38.8 61.5 79.3 61.5s74.1-26.8 79.3-61.5l76.8 14 72.6 72.6-52.7 52.7z"/>
    <path d="M32 320h192v16H32z"/>
    <path d="M32 384h184v16H32z"/>
    <path d="M32 448h184v16H32z"/>
</symbol><symbol id="icon-waistcoat" viewBox="0 0 368 368">
    <path d="M328 210.5c-24.9 0-26.5-22-26.5-26.5 0-59.9 14.2-134.5 15.9-142.8v-.1c.5-2.4-.7-4.9-2.9-6l-64-32c-1.4-.7-3-.8-4.5-.2s-2.6 1.8-3.1 3.2L231 38.7l-.9.4c-8.3 4.2-25.3 11.3-46.1 11.3s-37.8-7.1-46.1-11.3l-.9-.4-11.8-32.6c-.5-1.5-1.7-2.6-3.1-3.2-1.5-.6-3.1-.5-4.5.2l-64 32c-2.2 1.1-3.4 3.6-2.9 6v.1c1.6 8.3 15.9 83.2 15.9 142.8 0 4.4-1.6 26.5-26.5 26.5-3 0-5.5 2.5-5.5 5.5v136c0 7.4 6.1 13.5 13.5 13.5h80c1.5 0 2.9-.6 3.9-1.6l52.4-52.4 60.1 52.6c1 .9 2.3 1.4 3.6 1.4h72c7.4 0 13.5-6.1 13.5-13.5V216c-.1-3-2.6-5.5-5.6-5.5zm-149.5 91.2l-52.8 52.8H45.5V221.3l2.1-.3c23.6-3.8 29.9-25 29.9-36.9 0-54.6-11.5-120.3-15-139.1l-.3-1.9L117 15.7l.9 2.6L178.5 185v116.7zm5.5-133.8L142.4 53.4l5 1.7c12.2 4.2 24.5 6.4 36.6 6.4s24.4-2.1 36.6-6.4l5-1.7L184 167.9zm66.1 186.6l-60.6-53v-32H232c3 0 5.5-2.5 5.5-5.5s-2.5-5.5-5.5-5.5h-42.5v-37H232c3 0 5.5-2.5 5.5-5.5s-2.5-5.5-5.5-5.5h-42.5V185l.1-.4L251 15.7l54.7 27.4-.3 1.8c-3.5 18.8-15 84.3-15 139.1 0 11.9 6.3 33.2 29.9 36.9l2.1.3v133.2h-72.3v.1z"/>
</symbol><symbol id="icon-work-2" viewBox="0 0 512 763">
    <style>
        .st0,.st1{stroke:#000;stroke-width:5;stroke-miterlimit:10}.st1{stroke-width:7}
    </style>
    <path class="st0" d="M290.3 507.5c-4.5 0-8.1 3.6-8.1 8s3.6 8 8.1 8c4.4 0 8-3.6 8-8s-3.6-8-8-8z"/>
    <path class="st0" d="M290.4 627.3c-4.5 0-8.1 3.6-8.1 8s3.6 8 8.1 8c4.4 0 8-3.6 8-8 0-4.5-3.6-8-8-8z"/>
    <path class="st0" d="M290.3 447.7c-4.5 0-8.1 3.6-8.1 8s3.6 8 8.1 8c4.4 0 8-3.6 8-8s-3.6-8-8-8z"/>
    <path class="st0" d="M290.3 583.4c4.4 0 8-3.6 8-8s-3.6-8-8-8h-.1c-4.4 0-8 3.6-8 8s3.7 8 8.1 8z"/>
    <path class="st0" d="M477.6 637.5l-7.4-275.2c-.7-24.3-16.5-46.1-39.3-54.3l-84.1-30-15.6-23.4c-1.3-1.9-3.3-3.2-5.6-3.5-.4 0-.7-.1-1.1-.1H187.6c-.4 0-.7 0-1.1.1-2.3.3-4.3 1.6-5.6 3.5L165.3 278l-84.1 30c-22.9 8.2-38.7 30-39.3 54.3l-7.4 275.2c-.2 6.9 3.9 13.2 10.3 15.8l-1.5 26.6c-.4 7.2 3.9 13.8 10.6 16.4l48.9 18.6c.3 7.2 5.3 13.4 12.3 15.3L237 762.7c.7.2 1.4.3 2.1.3 1.6 0 3.1-.5 4.5-1.4 1.9-1.3 3.2-3.3 3.5-5.6l9.2-68.7 9.2 68.7c.3 2.3 1.6 4.3 3.5 5.6 1.9 1.3 4.3 1.7 6.5 1.1l121.9-32.5c7-1.9 12-8.1 12.3-15.3l48.9-18.6c6.8-2.6 11.1-9.2 10.6-16.4l-1.5-26.6c6-2.6 10.1-8.9 9.9-15.8zM332 284.8l-35 55.9c0 .1-.1.2-.4.2-.2 0-.4-.1-.4-.1l-27.8-22.2 54.3-47.5 9.3 13.7zm-142.8-13.7l54.3 47.5-27.8 22.2c-.1 0-.2.2-.4.1-.2 0-.3-.2-.4-.2L180 284.8l9.2-13.7zm-86.6 426.7l-43.1-16.4c-.2-.1-.4-.3-.3-.5l1.2-21.6 42.2 15.8v22.7zM248 626.2l-15.8 118.7L119 714.7c-.2-.1-.4-.3-.4-.5V404.4c0-4.4-3.6-8-8-8s-8 3.6-8 8v253.5l-51.9-19.5c-.2-.1-.4-.3-.3-.5l7.4-275.2c.5-17.7 12-33.6 28.7-39.6l80.6-28.8 34.2 54.8c2.5 4 6.6 6.8 11.3 7.6.9.2 1.9.2 2.8.2 3.7 0 7.4-1.3 10.4-3.6l22.2-17.8v290.7zm8-318L208.9 267H303l-47 41.2zm196.5 373.1l-43.1 16.4V675l42.2-15.8 1.2 21.6c.1.2-.1.4-.3.5zm8.8-42.8l-51.8 19.4.2-253.5c0-4.4-3.6-8-8-8s-8 3.6-8 8l-.3 309.8c0 .2-.2.5-.4.5l-113.1 30.2L264 626.2V335.6l22.2 17.8c3 2.4 6.6 3.6 10.4 3.6.9 0 1.9-.1 2.8-.2 4.7-.8 8.8-3.5 11.3-7.6l34.2-54.8 80.6 28.8c16.7 6 28.2 21.9 28.7 39.6l7.4 275.2c0 .2-.1.4-.3.5z"/>
    <path class="st0" d="M213.2 396.4h-68.4c-4.4 0-8 3.6-8 8v59.9c0 13.9 11.3 25.1 25.1 25.1h34.2c13.9 0 25.1-11.3 25.1-25.1v-59.9c.1-4.4-3.5-8-8-8zm-60.3 16h52.4v9.1c0 5-4.1 9.1-9.1 9.1H162c-5 0-9.1-4.1-9.1-9.1v-9.1zm52.3 51.8c0 5-4.1 9.1-9.1 9.1h-34.2c-5 0-9.1-4.1-9.1-9.1v-19.3c2.8 1.1 5.9 1.7 9.1 1.7h34.2c3.2 0 6.3-.6 9.1-1.7v19.3z"/>
    <ellipse transform="rotate(-13.286 290.134 395.762)" class="st0" cx="290.2" cy="395.8" rx="8" ry="8"/>
    <path class="st1" d="M58.6 192.9c24.3 19.4 53.5 30.2 84.6 31.3 1.6.1 3.2.1 4.8.1 29.3 0 57.5-8.8 81.6-25.7l31.8-22.2 67.6 6.9h.5c1.3 0 2.6-.5 3.6-1.4 1.1-1 1.8-2.4 1.8-4l.2-41.2c.2-40.8-30.2-75.3-70.8-80.2l-47.9-5.8c-18.8-2.3-37.9 2.2-53.8 12.6a80.217 80.217 0 0 0-33 44.3L116.4 153l-57 31.1c-1.6.9-2.6 2.4-2.8 4.2-.1 1.8.6 3.5 2 4.6zm72.6-52.3l37.3 4h.6c2.7 0 5-2 5.3-4.8.3-2.9-1.8-5.6-4.7-5.9l-35.4-3.8 5.7-19.3c9.7-32.7 41.3-53.4 75.2-49.4l47.9 5.8c35.2 4.2 61.5 34.2 61.4 69.6l-.2 35.3L127.8 152l3.4-11.4zm-9.2 21.5l123.2 12.6-21.6 15c-45.5 31.7-106.8 31.3-151.8-.3l50.2-27.3z"/>
    <path class="st1" d="M185.7 135.7c-3-.3-5.6 1.8-5.9 4.7s1.8 5.6 4.8 5.9h.6c2.7 0 5-2 5.3-4.8.3-2.8-1.9-5.5-4.8-5.8z"/>
</symbol><symbol id="icon-work-3" viewBox="0 0 511 512">
    <path d="M234.7 346.2c-3.3 3.3-8.7 3.3-12 0s-3.3-8.7 0-12c1.7-1.7 3.8-2.5 6-2.5s4.4.8 6 2.5c3.3 3.3 3.3 8.7 0 12z"/>
    <path d="M298.4 1.5C238.6 1.5 190 50.2 190 110s48.7 108.5 108.5 108.5S406.9 169.8 406.9 110 358.2 1.5 298.4 1.5zm0 199.9c-50.4 0-91.5-41-91.5-91.5s41-91.5 91.5-91.5 91.5 41 91.5 91.5-41 91.5-91.5 91.5z"/>
    <path d="M497.2 222.9c-16.1-13.5-40.3-11.6-54 4.3L383 289.1l-1.1-1.3c-7.4-9.1-18.3-14.3-29.9-14.3H240.2l-.3-.1c-15.7-6.6-32.3-9.9-49.5-9.9-49.1 0-89.7 23-111.4 63.1l-.5 1-1.1-.2c-1.8-.3-3.5-.5-5.3-.5-7.5 0-14.7 3-20.1 8.4L4.5 382.9c-3.3 3.3-3.3 8.7 0 12L116.7 508c3.3 3.3 8.7 3.3 12 .1l48.5-47.8c7.6-7.6 10.3-19.2 6.8-29.5l-.3-.9 11.1-10.7c5.9-5.7 13.7-8.8 21.9-8.8h132.9c23.2 0 45.1-8.9 61.7-25.1l.1-.1c.4-.4 3-3.6 16.4-19.6 12.6-15 34.8-41.6 74-88.5 13.7-16.2 11.6-40.5-4.6-54.2zm-332 225.3L122.8 490 22.5 388.9l41.6-41.7c3.8-3.8 9.7-4.5 14.2-1.6l.1.1c.9.5.9.5 17.8 17.4l68.9 68.9c2.2 2.2 3.4 5.1 3.4 8.2 0 3-1.2 6-3.3 8zm323.6-182L399 373.4l-.1.1c-13.4 12.8-31 19.9-49.5 19.9H216.6c-12.6 0-24.6 4.8-33.7 13.6l-9.6 9.2-80.2-80.1.5-1c18.5-34.7 53.8-54.7 96.7-54.7 15.5 0 30.5 3.1 44.6 9.3 1.1.5 2.2.7 3.4.7H352c11.9 0 21.5 9.6 21.5 21.5s-9.6 21.5-21.5 21.5h-81.6c-4.7 0-8.5 3.8-8.5 8.5s3.8 8.5 8.5 8.5H352c21.2 0 38.5-17.3 38.5-38.5 0-1.6-.1-3.3-.3-5l-.1-.7 42.1-43.3c18.9-19.5 23.4-24.1 23.8-24.5 7.6-9 21.2-10.2 30.3-2.5 9 7.6 10.1 21.2 2.5 30.3z"/>
    <path d="M324.9 130c0 12-7.6 22.8-19 26.9l-1 .4v12.8c0 4.7-3.8 8.5-8.5 8.5s-8.5-3.8-8.5-8.5v-12.7l-1-.3c-6.4-2.2-12.5-6.5-17.6-12.6-3-3.6-2.6-9 1-12 1.6-1.3 3.5-2 5.5-2 2.4 0 4.8 1 6.5 3 4.4 5.2 9.4 8.1 14.1 8.1 6.3 0 11.5-5.2 11.5-11.5s-5.1-11.5-11.5-11.5c-15.7 0-28.5-12.8-28.5-28.5 0-12 7.6-22.8 19-26.9l1-.4V50c0-4.7 3.8-8.5 8.5-8.5s8.5 3.8 8.5 8.5v12.7l1 .3c5 1.7 9.8 4.6 14.2 8.8 3.4 3.3 3.5 8.7.2 12-3.3 3.4-8.6 3.4-12 .2-3.8-3.7-7.9-5.6-11.9-5.6-6.3 0-11.5 5.2-11.5 11.5s5.2 11.5 11.5 11.5c15.7.1 28.5 12.8 28.5 28.6z"/>
</symbol><symbol id="icon-work-4" viewBox="0 0 512 512">
    <path d="M493.5 438.4l-45.9-183.9c-4.5-17.4-20.3-29.8-38.3-30.1h-.3l-104.3-8.1v-32.2l.8-.7c15.8-14.1 24.8-34.3 24.8-55.3V42.7c0-10.7-4.2-20.8-11.8-28.4-7.6-7.6-17.7-11.8-28.4-11.8h-68.3c-22.2 0-40.2 18-40.2 40.2V128c0 21 9 41.2 24.8 55.3l.8.7v32.2l-103.9 8.1c-18.4 0-34.4 12.4-39 30.2L18.6 438.3c-3.7 14.8-1.4 30.2 6.4 43.3 7.9 13.1 20.3 22.4 35.2 26.1 1.5.4 3.1.7 5 1h.3l.3.1c.8.4 1.6.5 2.5.5h76.8c19 0 35.6-13.5 39.3-32.1l.4-2h142.3l.4 2c3.8 18.6 20.3 32.1 39.4 32.1h76.8c.8 0 1.7-.2 2.4-.5l.3-.1h.3c27.6-4.3 48.4-28.6 48.4-56.5.1-4.6-.5-9.3-1.6-13.8zm-84.8-202c12.8 0 24 8.7 27.1 21l28 112h-48.2V264.5c0-3.3-2.7-6-6-6h-139l30.4-30.4 107.7 8.3zm-5.1 34.2v47.7H296.2v-47.7h107.4zm-175.7 47.6v-47.7h56.2v47.7h-56.2zm56.2 12.1v39.1h-56.2v-39.1h56.2zM256 256l-36.6-36.6v-26.6l3.6 1.8c10.3 5.2 21.5 7.8 33 7.8s22.7-2.6 33-7.8l3.6-1.8v26.6L256 256zM193.8 42.7c0-15.5 12.6-28.1 28.1-28.1h68.3c15.5 0 28.1 12.6 28.1 28.1v22.1l-4-3c-7-5.3-15.3-8-24.1-8h-68.3c-8.8 0-17.1 2.8-24.1 8l-4 3V42.7zm124 45.1H194.2l1.2-3.3c4-11.2 14.6-18.7 26.5-18.7h68.3c11.9 0 22.5 7.5 26.5 18.7l1.1 3.3zm-124 40.2V99.9h47.7v36.6c0 3.3 2.7 6 6 6H262v-12.1h-8.5V99.9h64.7V128c0 34.3-27.9 62.2-62.2 62.2s-62.2-27.9-62.2-62.2zM76.2 257.5c3.3-12.6 14.4-21 27.8-21.1l107-8.3 30.4 30.4h-139c-3.3 0-6 2.7-6 6v104.9H48.2l28-111.9zm139.6 13.1v47.7H108.4v-47.7h107.4zM62.2 443.7V496l-3.3-1.2c-10-3.5-18.1-10.2-23.6-19.3-6.2-10.3-8-22.5-5.1-34.2l14.9-59.8h51.2v41.6L93 422c-2.5-.9-5.1-1.3-7.7-1.3-12.7-.1-23.1 10.3-23.1 23zm109.4 35c-4 11.2-14.6 18.7-26.5 18.7H74.3v-53.7c0-6.1 5-11 11-11 6.1 0 11 5 11 11v25.6c0 3.3 2.7 6 6 6h70.3l-1 3.4zm-63.2-15.4v-133h107.4v45.2c0 3.3 2.7 6 6 6h68.3c3.3 0 6-2.7 6-6v-45.2h107.4v133H108.4zm329.3 34.1h-70.8c-11.9 0-22.5-7.5-26.5-18.7l-1.2-3.3h70.3c2.5 0 4.8-1.6 5.7-4 .2-.7.4-1.3.4-2v-25.6c0-6.1 5-11 11-11 6.1 0 11 5 11 11v53.6h.1zm15.4-2.6l-3.3 1.2v-52.3c0-12.7-10.4-23.1-23.1-23.1-2.6 0-5.2.5-7.7 1.3l-3.3 1.2v-41.6h51.2l14.9 59.8c.9 3.6 1.3 7.3 1.3 11 0 19-12.1 36.1-30 42.5z"/>
    <path d="M369.4 429.2h12.1v12.1h-12.1z"/>
    <path d="M335.3 429.2h12.1v12.1h-12.1z"/>
</symbol><symbol id="icon-work-5" viewBox="0 0 512 512">
    <path d="M475.9 232.8l-1-.1-13.9-55.5 1.5-.3c3-.6 5.1-3.3 5.1-6.4V162c0-17.7-14.4-32.2-32.2-32.2h-61.9v-19.1c0-8.3-6.8-15.1-15.1-15.1H50.8c-8.3 0-15.1 6.8-15.1 15.1V256c0 3.6 2.9 6.5 6.5 6.5s6.5-2.9 6.5-6.5V110.6c0-1.1.9-2 2-2h307.8c1.1 0 2 .9 2 2V256c0 3.6 2.9 6.5 6.5 6.5s6.5-2.9 6.5-6.5v-10.6h96.2c12 0 22.6 7.8 26.3 19.2l.6 2h-27c-3.6 0-6.5 2.9-6.5 6.5v17.1c0 13 10.6 23.6 23.6 23.6h10.6v38.3h-23.5l-.3-1c-6.9-19.9-25.6-33.2-46.6-33.2s-39.7 13.3-46.6 33.2l-.4 1h-6.4v-61.9c0-3.6-2.9-6.5-6.5-6.5s-6.5 2.9-6.5 6.5v61.9H191.8l-.3-1c-6.9-19.9-25.6-33.2-46.6-33.2s-39.7 13.3-46.6 33.2l-.4 1H50.8c-1.1 0-2-.9-2-2V331H85c3.6 0 6.5-2.9 6.5-6.5S88.6 318 85 318H8c-3.6 0-6.5 2.9-6.5 6.5S4.4 331 8 331h27.7v19.1c0 8.3 6.8 15.1 15.1 15.1h44.8v2c0 27.2 22.1 49.3 49.3 49.3s49.3-22.1 49.3-49.3v-2h183.7v2c0 27.2 22.1 49.3 49.3 49.3 27.2 0 49.3-22.1 49.3-49.3v-2H504c3.6 0 6.5-2.9 6.5-6.5v-85.5c0-20-14.9-37.4-34.6-40.4zm-102.2-90h61.9c10.6 0 19.1 8.6 19.1 19.1v2h-81v-21.1zm0 89.6V177h73.9l13.8 55.4h-87.7zm-228.9 171c-20 0-36.2-16.3-36.2-36.2 0-20 16.3-36.2 36.2-36.2 20 0 36.2 16.3 36.2 36.2.1 20-16.2 36.2-36.2 36.2zm282.2 0c-20 0-36.2-16.3-36.2-36.2 0-20 16.3-36.2 36.2-36.2 20 0 36.2 16.3 36.2 36.2.1 20-16.2 36.2-36.2 36.2zm70.5-102.6h-10.6c-5.8 0-10.6-4.8-10.6-10.6v-10.6h21.2v21.2z"/>
    <path d="M159.9 367.2c0 8.3-6.8 15.1-15.1 15.1s-15.1-6.8-15.1-15.1 6.8-15.1 15.1-15.1 15.1 6.8 15.1 15.1z"/>
    <path d="M442.1 367.2c0 8.3-6.8 15.1-15.1 15.1s-15.1-6.8-15.1-15.1 6.8-15.1 15.1-15.1 15.1 6.8 15.1 15.1z"/>
    <path d="M339.5 324.4c0 3.6-2.9 6.5-6.5 6.5H213.2c-3.6 0-6.5-2.9-6.5-6.5s2.9-6.5 6.5-6.5H333c3.5 0 6.5 2.9 6.5 6.5z"/>
    <path d="M134.3 290.2c0 3.6-2.9 6.5-6.5 6.5H25.1c-3.6 0-6.5-2.9-6.5-6.5s2.9-6.5 6.5-6.5h102.6c3.6 0 6.6 2.9 6.6 6.5z"/>
    <path d="M277.7 183.7l-77 77c-1.2 1.2-2.9 1.9-4.6 1.9s-3.4-.7-4.6-1.9l-42.8-42.8c-2.5-2.5-2.5-6.7 0-9.2 1.2-1.2 2.9-1.9 4.6-1.9s3.4.7 4.6 1.9l38.2 38.1 72.3-72.4c2.5-2.5 6.7-2.5 9.2 0 2.7 2.6 2.7 6.7.1 9.3z"/>
</symbol><symbol id="icon-work-6" viewBox="0 0 512 512">
    <path d="M504 381h-1v-89-.5-.3-.4c0-.2-.1-.3-.1-.4v-.2c-.1-.2-.1-.4-.1-.5v-.1c-.1-.3-.1-.4-.2-.6l-48.1-104.2c-.1-.1-.1-.3-.2-.4 0-.1-.1-.2-.2-.3s-.1-.2-.2-.3-.1-.2-.2-.3l-.2-.2-.3-.3-.2-.2-.3-.3-.2-.2c-.1-.1-.2-.2-.3-.2-.1-.1-.2-.1-.3-.2-.1-.1-.2-.1-.3-.2-.1-.1-.2-.1-.3-.2-.1-.1-.2-.1-.3-.1-.1-.1-.2-.1-.4-.2-.1 0-.2-.1-.3-.1-.1 0-.3-.1-.4-.1s-.2-.1-.3-.1c-.1 0-.3-.1-.4-.1H335V44c0-3.9-3.1-7-7-7H216c-3.9 0-7 3.1-7 7v57h-89c-3.9 0-7 3.1-7 7v49H24c-3.9 0-7 3.1-7 7v113H8c-3.9 0-7 3.1-7 7v104c0 3.9 3.1 7 7 7h9v25.5c0 3.9 3.1 7 7 7 .7 0 1.4-.1 2-.3h.3l47.1-.1.1.9c3.9 26.9 27.3 47.1 54.4 47.1 27.2 0 50.6-20.3 54.4-47.1l.1-.9h154.9l.1.9c3.9 26.9 27.3 47.1 54.4 47.1s50.6-20.3 54.4-47.1l.1-.9H504c3.9 0 7-3.1 7-7v-32c0-4-3.1-7.1-7-7.1zM375 195h68.5l.3.6 41.3 89.4H400c-13.8 0-25-11.2-25-25v-65zM263 51h18v26h-18V51zm-40 0h26v33c0 3.9 3.1 7 7 7h32c3.9 0 7-3.1 7-7V51h26v226h-98V51zm-96 64h34v9c0 3.9 3.1 7 7 7s7-3.1 7-7v-9h34v82h-82v-82zm0 96h34v17c0 3.9 3.1 7 7 7s7-3.1 7-7v-17h34v66h-82v-66zm-64-40h18v10H63v-10zm-32 0h18v17c0 3.9 3.1 7 7 7h32c3.9 0 7-3.1 7-7v-17h18v106H31V171zm97 290c-22.6 0-41-18.4-41-41s18.4-41 41-41 41 18.4 41 41-18.4 41-41 41zm264 0c-22.1 0-40.1-17.3-41-39.4v-.2c.1-.5.1-.9.1-1.4s0-.9-.1-1.4v-.2c.9-22.1 18.9-39.4 41-39.4 22.6 0 41 18.4 41 41s-18.4 41-41 41zm105-48h-50.5l-.1-.9c-3.9-26.9-27.3-47.1-54.4-47.1s-50.6 20.3-54.4 47.1l-.1.9h-155l-.1-.9c-3.9-26.9-27.3-47.1-54.4-47.1-27.2 0-50.6 20.3-54.4 47.2l-.1.9-42.5.1V395h17c3.9 0 7-3.1 7-7s-3.1-7-7-7H15v-90h306v33c0 3.9 3.1 7 7 7s7-3.1 7-7V195h26v65c0 21.5 17.5 39 39 39h89v42h-1c-3.9 0-7 3.1-7 7s3.1 7 7 7h1v26h-8.8c-3.9 0-7 3.1-7 7s3.1 7 7 7H497v18z"/>
    <path d="M128 397c-12.7 0-23 10.3-23 23s10.3 23 23 23 23-10.3 23-23-10.3-23-23-23zm0 32c-5 0-9-4-9-9s4-9 9-9 9 4 9 9-4 9-9 9z"/>
    <path d="M392 397c-12.7 0-23 10.3-23 23s10.3 23 23 23 23-10.3 23-23-10.3-23-23-23zm0 32c-5 0-9-4-9-9s4-9 9-9 9 4 9 9-4 9-9 9z"/>
</symbol></svg>