<svg id="Capa_1" xmlns="http://www.w3.org/2000/svg" viewBox="0 0 17 17">
    <style>
        .st0{fill:#31d9ff}
    </style>
    <path class="st0" d="M16.9 13.2c0-.1-.4-.4-.9-.6-.2-.1-.4-.2-.7-.4-.3-.2-.5-.3-.8-.4-.2-.1-.4-.3-.6-.4 0 0-.1-.1-.3-.2-.2-.1-.3-.2-.4-.3-.1-.1-.2-.1-.3-.1-.2 0-.4.1-.6.3l-.7.7c-.2.3-.4.5-.6.7-.2.2-.4.3-.6.3-.1 0-.2 0-.3-.1-.1 0-.2-.1-.2-.1-.1 0-.2-.1-.3-.2-.1-.1-.2-.1-.2-.1-1.1-.6-2-1.3-2.8-2.1-.8-.6-1.5-1.5-2.1-2.6 0 0-.1-.1-.1-.2-.2-.2-.2-.3-.2-.3 0-.1-.1-.1-.1-.2S4 6.6 4 6.6c0-.2.1-.4.3-.6.2-.2.5-.4.7-.6.3-.2.5-.4.7-.7.2-.2.3-.4.3-.6 0-.1 0-.2-.1-.3.1-.2 0-.3-.1-.5-.1-.1-.2-.2-.2-.3-.1-.2-.2-.4-.4-.6-.1-.2-.2-.5-.4-.8-.1-.3-.2-.5-.3-.6C4.2.4 4 .1 3.8.1c0-.1-.1-.1-.2-.1-.2 0-.5 0-.9.1-.3.1-.6.2-.8.3-.4.2-.8.6-1.3 1.5-.4.7-.6 1.5-.6 2.2v.6c0 .2.1.4.2.7.1.3.1.5.2.6 0 .1.1.3.2.7.1.3.2.5.2.6.3.8.6 1.5 1 2.1.6 1 1.5 2.1 2.6 3.2s2.2 2 3.2 2.6c.6.4 1.3.7 2.1 1 .1 0 .3.1.6.2s.5.2.7.2c.1 0 .3.1.6.2s.5.1.7.2h.6c.7 0 1.5-.2 2.2-.6.8-.5 1.3-.9 1.5-1.3.1-.2.2-.5.3-.8.1-.3.1-.6.1-.9 0-.1 0-.2-.1-.2z"/>
</svg>
